<svg width="47" height="54" viewBox="0 0 47 54" fill="none" xmlns="http://www.w3.org/2000/svg">
<path d="M39.4728 0H1.69924C1.25744 0.000473129 0.816874 0.0465026 0.384521 0.137358C1.45699 0.39315 2.41203 1.00277 3.09556 1.86787C3.7791 2.73297 4.15128 3.80311 4.15207 4.90566V28.4528C4.154 28.7063 4.131 28.9594 4.08339 29.2083H4.15207V52C4.15753 52.3391 4.25079 52.671 4.42274 52.9633C4.59469 53.2557 4.83947 53.4984 5.1332 53.668C5.41684 53.8432 5.74044 53.9432 6.07347 53.9586C6.40649 53.9741 6.73796 53.9044 7.0366 53.7563L15.9257 49.2921L24.8638 53.7563C25.1452 53.9041 25.4583 53.9813 25.7762 53.9813C26.0941 53.9813 26.4073 53.9041 26.6887 53.7563L34.6162 49.351L43.5053 53.7955C43.8039 53.9437 44.1354 54.0133 44.4684 53.9979C44.8015 53.9824 45.1251 53.8824 45.4087 53.7072C45.699 53.5282 45.9377 53.2766 46.1011 52.9772C46.2646 52.6779 46.3472 52.3411 46.3408 52V6.86793C46.3408 5.04644 45.6172 3.29956 44.3292 2.01157C43.0412 0.723583 41.2943 0 39.4728 0Z" fill="#FF0000"/>
</svg>
